# xmcd CD database file
#
# Track frame offsets:
#	150
#	25665
#	43595
#
# Disc length: 923 seconds
#
# Revision: 0
# Processed by: cddbd v1.5.1PL0 Copyright (c) Steve Scherf et al.
# Submitted via: CDex 1.51
#
DISCID=19039903
DTITLE=RAMJA - 過去
DYEAR=2005
DGENRE=J-Pop
TTITLE0=過去
TTITLE1=喜劇
TTITLE2=寵愛
EXTD=YEAR: 2005
EXTT0=
EXTT1=
EXTT2=
PLAYORDER=
